<svg xmlns="http://www.w3.org/2000/svg" width="18.836" height="19.01" viewBox="0 0 18.836 19.01">
  <path id="Tracé_23" data-name="Tracé 23" d="M12.387,45.619A1.991,1.991,0,1,1,10.4,43.628,1.991,1.991,0,0,1,12.387,45.619Z" transform="translate(-0.981 -36.125)" fill="none" stroke="#1d1d1b" stroke-miterlimit="10" stroke-width="1"/>
  <path id="Tracé_24" data-name="Tracé 24" d="M19.317,45.619c0-1.164-1.481-2.118-3.368-2.216,1.262-1.4,1.634-3.123.812-3.945-.861-.861-2.708-.412-4.143,1,0-.049,0-.1,0-.145,0-2.037-1-3.688-2.225-3.688-1.2,0-2.183,1.583-2.223,3.561-1.423-1.348-3.215-1.766-4.06-.921s-.414,2.7.987,4.13c-2,.023-3.618,1.009-3.618,2.224,0,1.175,1.51,2.136,3.422,2.218-1.317,1.416-1.719,3.182-.882,4.019.863.863,2.715.411,4.151-1.006,0,.033,0,.065,0,.1,0,2.037,1,3.688,2.225,3.688,1.191,0,2.163-1.551,2.222-3.5,1.409,1.287,3.149,1.673,3.978.844.86-.86.414-2.7-.99-4.135h.024C17.666,47.844,19.317,46.848,19.317,45.619Z" transform="translate(-0.981 -36.125)" fill="none" stroke="#1d1d1b" stroke-miterlimit="10" stroke-width="1"/>
</svg>
