<svg xmlns="http://www.w3.org/2000/svg" width="48.976" height="48.976" viewBox="0 0 48.976 48.976">
  <path id="Tracé_30" data-name="Tracé 30" d="M15.486,24.687c0,1.168,0,2.177,3.325,2.654l-.324,2.346h2.3V28.536h1.151v1.151H23.95V28.68h1.076v1.007h2.012V28.536h1.151v1.151h2.3l-.322-2.346c3.324-.477,3.324-1.486,3.324-2.654a1.937,1.937,0,0,0-.649-1.815A10.591,10.591,0,0,0,34.407,17.3,10.131,10.131,0,0,0,24.488,6.972,10.13,10.13,0,0,0,14.569,17.3a10.593,10.593,0,0,0,1.573,5.58,1.936,1.936,0,0,0-.656,1.8M28.155,17.3A2.955,2.955,0,1,1,25.2,20.258,2.954,2.954,0,0,1,28.155,17.3m-3.667,7.7a1.33,1.33,0,0,1,1.128,1.3c0,.573-.5.094-1.128.094s-1.129.479-1.129-.094a1.331,1.331,0,0,1,1.129-1.3m-3.666-7.7a2.955,2.955,0,1,1-2.954,2.955A2.955,2.955,0,0,1,20.822,17.3" fill="#e64b1d"/>
  <path id="Tracé_31" data-name="Tracé 31" d="M39.293,29.845a1.881,1.881,0,0,0-.815-.881,1.73,1.73,0,0,0-2.431-1.744,1.735,1.735,0,0,0-.99,1.911L24.488,33.886,13.919,29.131a1.73,1.73,0,1,0-3.42-.167,1.883,1.883,0,0,0,.13,3.371,1.847,1.847,0,0,0,.77.167,1.879,1.879,0,0,0,1.374-.595l8.057,3.624L17,37.252a1.73,1.73,0,0,0-2.953,1.759,1.716,1.716,0,0,0,.559.688,1.883,1.883,0,0,0,2.61,2.139,1.893,1.893,0,0,0,1.1-1.888l6.168-2.773,6.168,2.774a1.883,1.883,0,0,0,3.592.943,1.859,1.859,0,0,0,.118-1.194,1.7,1.7,0,0,0,.56-.688,1.73,1.73,0,0,0-2.953-1.76l-3.827-1.721L36.2,31.907a1.883,1.883,0,0,0,3.09-2.062" fill="#e64b1d"/>
  <path id="Tracé_32" data-name="Tracé 32" d="M24.488,48.976A24.489,24.489,0,0,1,7.172,7.172,24.489,24.489,0,0,1,41.8,41.8a24.329,24.329,0,0,1-17.316,7.172m0-45.389a20.9,20.9,0,1,0,20.9,20.9,20.924,20.924,0,0,0-20.9-20.9" fill="#e64b1d"/>
</svg>
