<?xml version="1.0" encoding="utf-8"?>
<!-- Generator: Adobe Illustrator 28.0.0, SVG Export Plug-In . SVG Version: 6.00 Build 0)  -->
<svg version="1.1" id="Calque_1" xmlns="http://www.w3.org/2000/svg" xmlns:xlink="http://www.w3.org/1999/xlink" x="0px" y="0px"
	 viewBox="0 0 18.8 19" style="enable-background:new 0 0 18.8 19;" xml:space="preserve">
<style type="text/css">
	.st0{fill:none;stroke:#1D1D1B;stroke-miterlimit:10;}
</style>
<path id="Tracé_23" class="st0" d="M11.4,9.5c0,1.1-0.9,2-2,2c-1.1,0-2-0.9-2-2c0-1.1,0.9-2,2-2c0,0,0,0,0,0
	C10.5,7.5,11.4,8.4,11.4,9.5z"/>
<path id="Tracé_24" class="st0" d="M18.3,9.5c0-1.2-1.5-2.1-3.4-2.2c1.3-1.4,1.6-3.1,0.8-3.9c-0.9-0.9-2.7-0.4-4.1,1
	c0,0,0-0.1,0-0.1c0-2-1-3.7-2.2-3.7c-1.2,0-2.2,1.6-2.2,3.6C5.8,2.7,4,2.3,3.1,3.1s-0.4,2.7,1,4.1c-2,0-3.6,1-3.6,2.2
	c0,1.2,1.5,2.1,3.4,2.2c-1.3,1.4-1.7,3.2-0.9,4c0.9,0.9,2.7,0.4,4.2-1c0,0,0,0.1,0,0.1c0,2,1,3.7,2.2,3.7c1.2,0,2.2-1.6,2.2-3.5
	c1.4,1.3,3.1,1.7,4,0.8c0.9-0.9,0.4-2.7-1-4.1h0C16.7,11.7,18.3,10.7,18.3,9.5z"/>
</svg>
