<?xml version="1.0" encoding="utf-8"?>
<!-- Generator: Adobe Illustrator 28.0.0, SVG Export Plug-In . SVG Version: 6.00 Build 0)  -->
<svg version="1.1" id="Calque_1" xmlns="http://www.w3.org/2000/svg" xmlns:xlink="http://www.w3.org/1999/xlink" x="0px" y="0px"
	 viewBox="0 0 18.8 19" style="enable-background:new 0 0 18.8 19;" xml:space="preserve">
<style type="text/css">
	.st0{fill:none;stroke:#FFFFFF;stroke-miterlimit:10;}
</style>
<path id="Tracé_23" class="st0" d="M11.4,9.5c0,1.1-0.9,2-2,2s-2-0.9-2-2s0.9-2,2-2l0,0C10.5,7.5,11.4,8.4,11.4,9.5z"/>
<path id="Tracé_24" class="st0" d="M18.3,9.5c0-1.2-1.5-2.1-3.4-2.2c1.3-1.4,1.6-3.1,0.8-3.9c-0.9-0.9-2.7-0.4-4.1,1V4.3
	c0-2-1-3.7-2.2-3.7S7.2,2.2,7.2,4.2C5.8,2.7,4,2.3,3.1,3.1s-0.4,2.7,1,4.1c-2,0-3.6,1-3.6,2.2s1.5,2.1,3.4,2.2
	c-1.3,1.4-1.7,3.2-0.9,4c0.9,0.9,2.7,0.4,4.2-1v0.1c0,2,1,3.7,2.2,3.7s2.2-1.6,2.2-3.5c1.4,1.3,3.1,1.7,4,0.8c0.9-0.9,0.4-2.7-1-4.1
	l0,0C16.7,11.7,18.3,10.7,18.3,9.5z"/>
</svg>
