<?xml version="1.0" encoding="utf-8"?>
<!-- Generator: Adobe Illustrator 28.0.0, SVG Export Plug-In . SVG Version: 6.00 Build 0)  -->
<svg version="1.1" id="Calque_1" xmlns="http://www.w3.org/2000/svg" xmlns:xlink="http://www.w3.org/1999/xlink" x="0px" y="0px"
	 viewBox="0 0 22.5 29.6" style="enable-background:new 0 0 22.5 29.6;" xml:space="preserve">
<style type="text/css">
	.st0{fill:none;stroke:#FFFFFF;stroke-miterlimit:10;}
</style>
<line id="Ligne_10" class="st0" x1="16.7" y1="16" x2="20.6" y2="16.5"/>
<line id="Ligne_11" class="st0" x1="19" y1="13.6" x2="21.6" y2="13.9"/>
<line id="Ligne_15" class="st0" x1="5.7" y1="7.3" x2="9" y2="4.8"/>
<path id="Tracé_27" class="st0" d="M8.2,23.5c8.7-3.5,11,4.7,11,4.7S11.6,32.2,8.2,23.5z"/>
<path id="Tracé_28" class="st0" d="M22,10.4c0.2,10.9-9.7,10.1-9.7,10.1S11.1,10.7,22,10.4z"/>
<line id="Ligne_8" class="st0" x1="12.3" y1="20.5" x2="22" y2="10.4"/>
<line id="Ligne_9" class="st0" x1="14.7" y1="18" x2="18.9" y2="18.5"/>
<path id="Tracé_29" class="st0" d="M5.7,0.7c11.7,11.7,0,21.3,0,21.3S-6,12.4,5.7,0.7z"/>
<line id="Ligne_12" class="st0" x1="5.7" y1="22" x2="5.7" y2="0.7"/>
<line id="Ligne_13" class="st0" x1="5.7" y1="16.7" x2="10.9" y2="12.9"/>
<line id="Ligne_14" class="st0" x1="5.7" y1="12.4" x2="10.6" y2="8.7"/>
<line id="Ligne_16" class="st0" x1="5.6" y1="16.7" x2="0.5" y2="12.9"/>
<line id="Ligne_17" class="st0" x1="5.6" y1="12.4" x2="0.7" y2="8.7"/>
<line id="Ligne_18" class="st0" x1="5.6" y1="7.3" x2="2.3" y2="4.8"/>
</svg>
