<svg xmlns="http://www.w3.org/2000/svg" xmlns:xlink="http://www.w3.org/1999/xlink" width="48.003" height="47.998" viewBox="0 0 48.003 47.998">
  <defs>
    <filter id="Soustraction_55" x="0" y="0" width="48.003" height="47.998" filterUnits="userSpaceOnUse">
      <feOffset dy="3" input="SourceAlpha"/>
      <feGaussianBlur stdDeviation="1.5" result="blur"/>
      <feFlood flood-opacity="0.384"/>
      <feComposite operator="in" in2="blur"/>
      <feComposite in="SourceGraphic"/>
    </filter>
  </defs>
  <g transform="matrix(1, 0, 0, 1, 0, 0)" filter="url(#Soustraction_55)">
    <path id="Soustraction_55-2" data-name="Soustraction 55" d="M-9167.5,17739a19.33,19.33,0,0,1-7.589-1.533,19.389,19.389,0,0,1-6.2-4.18,19.393,19.393,0,0,1-4.179-6.2,19.386,19.386,0,0,1-1.532-7.59,19.363,19.363,0,0,1,1.532-7.588,19.428,19.428,0,0,1,4.179-6.2,19.437,19.437,0,0,1,6.2-4.178,19.33,19.33,0,0,1,7.589-1.533,19.339,19.339,0,0,1,7.591,1.533,19.419,19.419,0,0,1,6.2,4.178,19.442,19.442,0,0,1,4.18,6.2,19.346,19.346,0,0,1,1.533,7.588,19.363,19.363,0,0,1-1.533,7.59,19.423,19.423,0,0,1-4.18,6.2,19.435,19.435,0,0,1-6.2,4.18A19.339,19.339,0,0,1-9167.5,17739Zm-2.8-25.816h0v20.729h5.493v-20.729Zm2.747-8.014a2.878,2.878,0,0,0-2.952,2.863,2.833,2.833,0,0,0,.86,2.049,2.931,2.931,0,0,0,2.056.826h.036a2.894,2.894,0,0,0,2.974-2.875A2.889,2.889,0,0,0-9167.555,17705.17Z" transform="translate(9191.5 -17698.5)" fill="#fff"/>
  </g>
</svg>
