<svg xmlns="http://www.w3.org/2000/svg" xmlns:xlink="http://www.w3.org/1999/xlink" width="58.491" height="53.726" viewBox="0 0 58.491 53.726">
  <defs>
    <clipPath id="clip-path">
      <rect id="Rectangle_169" data-name="Rectangle 169" width="58.491" height="53.726" fill="none"/>
    </clipPath>
  </defs>
  <g id="Groupe_98" data-name="Groupe 98" clip-path="url(#clip-path)">
    <path id="Tracé_30" data-name="Tracé 30" d="M15.664,26.4c0,1.281,0,2.388,3.971,2.911l-.387,2.573h2.747V30.627H23.37v1.263h2.4v-1.1h1.285v1.1h2.4V30.627h1.375v1.263h2.746L33.2,29.316c3.97-.523,3.97-1.63,3.97-2.911a2.031,2.031,0,0,0-.775-1.991,10.924,10.924,0,0,0,1.87-6.109A11.6,11.6,0,0,0,26.415,6.972,11.6,11.6,0,0,0,14.569,18.3a10.927,10.927,0,0,0,1.879,6.121,2.031,2.031,0,0,0-.783,1.979m15.13-8.1a3.393,3.393,0,0,1,3.528,3.242,3.542,3.542,0,0,1-7.058,0,3.4,3.4,0,0,1,3.53-3.242m-4.379,8.452a1.506,1.506,0,0,1,1.347,1.429c0,.629-.6.1-1.347.1s-1.348.525-1.348-.1a1.507,1.507,0,0,1,1.348-1.429M22.037,18.3a3.394,3.394,0,0,1,3.53,3.242,3.4,3.4,0,0,1-3.53,3.242,3.394,3.394,0,0,1-3.528-3.242A3.394,3.394,0,0,1,22.037,18.3" transform="translate(2.83 0.677)" fill="#e64b1d"/>
    <path id="Tracé_31" data-name="Tracé 31" d="M45.078,30.114a2.143,2.143,0,0,0-.973-.966,1.768,1.768,0,0,0-.171-.96,2.088,2.088,0,0,0-1.885-1.12,2.234,2.234,0,0,0-.848.167,1.959,1.959,0,0,0-1.084,1.057,1.749,1.749,0,0,0-.1,1.039L27.4,34.547,14.774,29.331a1.739,1.739,0,0,0-.1-1.039,1.965,1.965,0,0,0-1.086-1.057,2.224,2.224,0,0,0-.847-.167,2.086,2.086,0,0,0-1.885,1.12,1.757,1.757,0,0,0-.171.96,2.14,2.14,0,0,0-.975.966,1.9,1.9,0,0,0-.051,1.581,2.138,2.138,0,0,0,1.181,1.151,2.372,2.372,0,0,0,.92.183,2.342,2.342,0,0,0,1.641-.653l9.622,3.975-4.57,1.888a2.141,2.141,0,0,0-1.645-.747,2.213,2.213,0,0,0-.847.168,1.838,1.838,0,0,0-1.035,2.509,1.925,1.925,0,0,0,.668.755,1.9,1.9,0,0,0,.142,1.311,2.269,2.269,0,0,0,2.052,1.219,2.394,2.394,0,0,0,.923-.183A2.057,2.057,0,0,0,20.03,41.2L27.4,38.157,34.763,41.2a2.059,2.059,0,0,0,1.315,2.071,2.418,2.418,0,0,0,.923.182,2.269,2.269,0,0,0,2.052-1.219,1.887,1.887,0,0,0,.141-1.31,1.909,1.909,0,0,0,.669-.755,1.839,1.839,0,0,0-1.035-2.51,2.212,2.212,0,0,0-.847-.167,2.14,2.14,0,0,0-1.645.746l-4.57-1.888,9.622-3.975a2.341,2.341,0,0,0,1.64.653,2.394,2.394,0,0,0,.922-.182,2.136,2.136,0,0,0,1.18-1.151,1.9,1.9,0,0,0-.051-1.582" transform="translate(1.849 2.625)" fill="#e64b1d"/>
    <path id="Tracé_32" data-name="Tracé 32" d="M29.245,53.725a30.412,30.412,0,0,1-20.68-7.867,25.345,25.345,0,0,1,0-37.99A30.412,30.412,0,0,1,29.245,0a30.412,30.412,0,0,1,20.68,7.867,25.345,25.345,0,0,1,0,37.99,30.412,30.412,0,0,1-20.68,7.867m0-49.79C15.481,3.935,4.284,14.22,4.284,26.862S15.481,49.79,29.245,49.79,54.207,39.5,54.207,26.862,43.009,3.935,29.245,3.935" transform="translate(0 0.001)" fill="#e64b1d"/>
  </g>
</svg>
