<svg xmlns="http://www.w3.org/2000/svg" xmlns:xlink="http://www.w3.org/1999/xlink" width="61" height="61" viewBox="0 0 61 61">
  <defs>
    <filter id="Ellipse_136" x="0" y="0" width="61" height="61" filterUnits="userSpaceOnUse">
      <feOffset dy="3" input="SourceAlpha"/>
      <feGaussianBlur stdDeviation="3" result="blur"/>
      <feFlood flood-opacity="0.161"/>
      <feComposite operator="in" in2="blur"/>
      <feComposite in="SourceGraphic"/>
    </filter>
  </defs>
  <g id="Groupe_1526" data-name="Groupe 1526" transform="translate(9.4 6.178)">
    <g transform="matrix(1, 0, 0, 1, -9.4, -6.18)" filter="url(#Ellipse_136)">
      <g id="Ellipse_136-2" data-name="Ellipse 136" transform="translate(9 6)" fill="#fff" stroke="#e0b551" stroke-width="3">
        <circle cx="21.5" cy="21.5" r="21.5" stroke="none"/>
        <circle cx="21.5" cy="21.5" r="20" fill="none"/>
      </g>
    </g>
    <path id="Icon_ionic-ios-close" data-name="Icon ionic-ios-close" d="M22,19.948l6.187-6.187a1.45,1.45,0,1,0-2.05-2.05L19.949,17.9l-6.187-6.187a1.45,1.45,0,1,0-2.05,2.05L17.9,19.948l-6.187,6.187a1.45,1.45,0,0,0,2.05,2.05L19.949,22l6.187,6.187a1.45,1.45,0,0,0,2.05-2.05Z" transform="translate(0.954 1.078)" fill="#e0b551"/>
  </g>
</svg>
