<svg xmlns="http://www.w3.org/2000/svg" width="22.467" height="29.619" viewBox="0 0 22.467 29.619">
  <line id="Ligne_10" data-name="Ligne 10" x2="3.981" y2="0.481" transform="translate(16.665 15.973)" fill="none" stroke="#1d1d1b" stroke-miterlimit="10" stroke-width="1"/>
  <line id="Ligne_11" data-name="Ligne 11" x2="2.677" y2="0.324" transform="translate(18.965 13.564)" fill="none" stroke="#1d1d1b" stroke-miterlimit="10" stroke-width="1"/>
  <line id="Ligne_15" data-name="Ligne 15" y1="2.456" x2="3.284" transform="translate(5.738 4.85)" fill="none" stroke="#1d1d1b" stroke-miterlimit="10" stroke-width="1"/>
  <path id="Tracé_27" data-name="Tracé 27" d="M8.151,23.5c8.669-3.466,11.015,4.723,11.015,4.723S11.617,32.167,8.151,23.5Z" transform="translate(0.029 0)" fill="none" stroke="#1d1d1b" stroke-miterlimit="10" stroke-width="1"/>
  <path id="Tracé_28" data-name="Tracé 28" d="M21.934,10.426c.25,10.9-9.664,10.119-9.664,10.119S11.037,10.676,21.934,10.426Z" transform="translate(0.029 0)" fill="none" stroke="#1d1d1b" stroke-miterlimit="10" stroke-width="1"/>
  <line id="Ligne_8" data-name="Ligne 8" y1="10.119" x2="9.664" transform="translate(12.298 10.426)" fill="none" stroke="#1d1d1b" stroke-miterlimit="10" stroke-width="1"/>
  <line id="Ligne_9" data-name="Ligne 9" x2="4.171" y2="0.504" transform="translate(14.703 18.027)" fill="none" stroke="#1d1d1b" stroke-miterlimit="10" stroke-width="1"/>
  <path id="Tracé_29" data-name="Tracé 29" d="M5.709.707c11.721,11.721,0,21.278,0,21.278S-6.012,12.428,5.709.707Z" transform="translate(0.029 0)" fill="none" stroke="#1d1d1b" stroke-miterlimit="10" stroke-width="1"/>
  <line id="Ligne_12" data-name="Ligne 12" y1="21.278" transform="translate(5.738 0.707)" fill="none" stroke="#1d1d1b" stroke-miterlimit="10" stroke-width="1"/>
  <line id="Ligne_13" data-name="Ligne 13" y1="3.827" x2="5.117" transform="translate(5.738 12.863)" fill="none" stroke="#1d1d1b" stroke-miterlimit="10" stroke-width="1"/>
  <line id="Ligne_14" data-name="Ligne 14" y1="3.652" x2="4.884" transform="translate(5.738 8.719)" fill="none" stroke="#1d1d1b" stroke-miterlimit="10" stroke-width="1"/>
  <line id="Ligne_16" data-name="Ligne 16" x1="5.117" y1="3.827" transform="translate(0.452 12.863)" fill="none" stroke="#1d1d1b" stroke-miterlimit="10" stroke-width="1"/>
  <line id="Ligne_17" data-name="Ligne 17" x1="4.884" y1="3.652" transform="translate(0.686 8.719)" fill="none" stroke="#1d1d1b" stroke-miterlimit="10" stroke-width="1"/>
  <line id="Ligne_18" data-name="Ligne 18" x1="3.284" y1="2.456" transform="translate(2.286 4.85)" fill="none" stroke="#1d1d1b" stroke-miterlimit="10" stroke-width="1"/>
</svg>
